<mxfile host="app.diagrams.net" modified="2024-07-04T09:27:50.528Z" agent="Mozilla/5.0 (Windows NT 10.0; Win64; x64) AppleWebKit/537.36 (KHTML, like Gecko) Chrome/126.0.0.0 Safari/537.36" etag="6ZUCnf3U2A9I_Dvbd4G7" version="24.6.4" type="github">
  <diagram id="C5RBs43oDa-KdzZeNtuy" name="Page-1">
    <mxGraphModel dx="1434" dy="900" grid="1" gridSize="10" guides="1" tooltips="1" connect="1" arrows="1" fold="1" page="1" pageScale="1" pageWidth="827" pageHeight="1169" math="0" shadow="0">
      <root>
        <mxCell id="WIyWlLk6GJQsqaUBKTNV-0" />
        <mxCell id="WIyWlLk6GJQsqaUBKTNV-1" parent="WIyWlLk6GJQsqaUBKTNV-0" />
        <mxCell id="3Fa9ECSKXKnsgaUjSohv-4" value="&lt;font style=&quot;font-size: 30px;&quot;&gt;LAN 1&lt;/font&gt;" style="shape=ext;double=1;rounded=0;whiteSpace=wrap;html=1;align=right;" vertex="1" parent="WIyWlLk6GJQsqaUBKTNV-1">
          <mxGeometry x="279.5" y="13" width="291" height="157" as="geometry" />
        </mxCell>
        <mxCell id="3Fa9ECSKXKnsgaUjSohv-3" value="&lt;font style=&quot;font-size: 30px;&quot;&gt;LAN 2&lt;/font&gt;" style="shape=ext;double=1;rounded=0;whiteSpace=wrap;html=1;" vertex="1" parent="WIyWlLk6GJQsqaUBKTNV-1">
          <mxGeometry x="210" y="485" width="480" height="140" as="geometry" />
        </mxCell>
        <mxCell id="WIyWlLk6GJQsqaUBKTNV-3" value="Local server deploy&lt;div&gt;(cloudflare wrap client installed)&lt;/div&gt;" style="rounded=1;whiteSpace=wrap;html=1;fontSize=12;glass=0;strokeWidth=1;shadow=0;fillColor=#b1ddf0;strokeColor=#10739e;" parent="WIyWlLk6GJQsqaUBKTNV-1" vertex="1">
          <mxGeometry x="290" y="50" width="190" height="100" as="geometry" />
        </mxCell>
        <mxCell id="WIyWlLk6GJQsqaUBKTNV-11" value="PC (cloudflare installed)" style="rounded=1;whiteSpace=wrap;html=1;fontSize=12;glass=0;strokeWidth=1;shadow=0;fillColor=#b1ddf0;strokeColor=#10739e;" parent="WIyWlLk6GJQsqaUBKTNV-1" vertex="1">
          <mxGeometry x="220" y="505" width="180" height="100" as="geometry" />
        </mxCell>
        <mxCell id="3Fa9ECSKXKnsgaUjSohv-2" value="PRINTER" style="triangle;whiteSpace=wrap;html=1;fillColor=#f8cecc;strokeColor=#b85450;" vertex="1" parent="WIyWlLk6GJQsqaUBKTNV-1">
          <mxGeometry x="530" y="490" width="140" height="130" as="geometry" />
        </mxCell>
        <mxCell id="3Fa9ECSKXKnsgaUjSohv-5" value="&lt;span style=&quot;font-size: 21px; background-color: rgb(51, 255, 51);&quot;&gt;Cloudflare&lt;/span&gt;" style="shape=process;whiteSpace=wrap;html=1;backgroundOutline=1;" vertex="1" parent="WIyWlLk6GJQsqaUBKTNV-1">
          <mxGeometry x="260" y="280" width="270" height="110" as="geometry" />
        </mxCell>
        <mxCell id="3Fa9ECSKXKnsgaUjSohv-6" value="" style="shape=flexArrow;endArrow=classic;html=1;rounded=0;exitX=0.25;exitY=1;exitDx=0;exitDy=0;entryX=0.026;entryY=0.009;entryDx=0;entryDy=0;entryPerimeter=0;fillColor=#6d8764;strokeColor=#3A5431;" edge="1" parent="WIyWlLk6GJQsqaUBKTNV-1" source="3Fa9ECSKXKnsgaUjSohv-4" target="3Fa9ECSKXKnsgaUjSohv-5">
          <mxGeometry width="50" height="50" relative="1" as="geometry">
            <mxPoint x="320" y="460" as="sourcePoint" />
            <mxPoint x="370" y="410" as="targetPoint" />
          </mxGeometry>
        </mxCell>
        <mxCell id="3Fa9ECSKXKnsgaUjSohv-7" value="working&amp;nbsp;&lt;div&gt;ping&amp;nbsp;&lt;span style=&quot;background-color: initial;&quot;&gt;alprinter.mobilyacht.yachts&lt;/span&gt;&lt;div&gt;&lt;div&gt;logs can be read from cloudflare&lt;/div&gt;&lt;/div&gt;&lt;/div&gt;" style="text;html=1;align=center;verticalAlign=middle;resizable=0;points=[];autosize=1;strokeColor=#82b366;fillColor=#d5e8d4;" vertex="1" parent="WIyWlLk6GJQsqaUBKTNV-1">
          <mxGeometry x="590" y="50" width="190" height="60" as="geometry" />
        </mxCell>
        <mxCell id="3Fa9ECSKXKnsgaUjSohv-8" value="can send get request from python code&lt;div&gt;can see logs from cloudflare&lt;/div&gt;" style="text;html=1;align=center;verticalAlign=middle;resizable=0;points=[];autosize=1;strokeColor=#82b366;fillColor=#d5e8d4;" vertex="1" parent="WIyWlLk6GJQsqaUBKTNV-1">
          <mxGeometry x="580" y="160" width="230" height="40" as="geometry" />
        </mxCell>
        <mxCell id="3Fa9ECSKXKnsgaUjSohv-9" value="Can sent print requests in the same LAN with python code&lt;div&gt;using brother_ql library that is using TCP servise&lt;/div&gt;" style="text;html=1;align=center;verticalAlign=middle;resizable=0;points=[];autosize=1;strokeColor=#82b366;fillColor=#d5e8d4;" vertex="1" parent="WIyWlLk6GJQsqaUBKTNV-1">
          <mxGeometry x="279.5" y="640" width="330" height="40" as="geometry" />
        </mxCell>
        <mxCell id="3Fa9ECSKXKnsgaUjSohv-10" value="Tunnel created alprinter.mobilyacht.yachts&lt;div&gt;&lt;span style=&quot;background-color: initial;&quot;&gt;tcp printer ip and port&lt;/span&gt;&lt;/div&gt;" style="text;html=1;align=center;verticalAlign=middle;resizable=0;points=[];autosize=1;strokeColor=#82b366;fillColor=#d5e8d4;" vertex="1" parent="WIyWlLk6GJQsqaUBKTNV-1">
          <mxGeometry x="552" y="315" width="250" height="40" as="geometry" />
        </mxCell>
        <mxCell id="3Fa9ECSKXKnsgaUjSohv-12" value="printeri nuk suporton http(s), vetem tcp" style="text;html=1;align=center;verticalAlign=middle;resizable=0;points=[];autosize=1;strokeColor=#b85450;fillColor=#f8cecc;" vertex="1" parent="WIyWlLk6GJQsqaUBKTNV-1">
          <mxGeometry x="530" y="440" width="230" height="30" as="geometry" />
        </mxCell>
        <mxCell id="3Fa9ECSKXKnsgaUjSohv-13" value="libraria brother_ql nga kodi python&lt;div&gt;perdor tcp&lt;div&gt;&amp;nbsp;ashtu sic e pranon printeri,&amp;nbsp;&lt;/div&gt;&lt;div&gt;nuk funksionon me theritjen e url&amp;nbsp;&lt;/div&gt;&lt;div&gt;https://alprinter.mobilyacht.yachts/&lt;br&gt;&lt;/div&gt;&lt;/div&gt;" style="text;html=1;align=center;verticalAlign=middle;resizable=0;points=[];autosize=1;strokeColor=#b85450;fillColor=#f8cecc;" vertex="1" parent="WIyWlLk6GJQsqaUBKTNV-1">
          <mxGeometry x="40" y="270" width="200" height="90" as="geometry" />
        </mxCell>
        <mxCell id="3Fa9ECSKXKnsgaUjSohv-14" value="IDE:&lt;div&gt;1- post request tek url alprinter&amp;nbsp;&amp;nbsp;&lt;/div&gt;&lt;div&gt;2- tek body i post rq te jete kodi me brother_ql lib&lt;/div&gt;&lt;div&gt;3- si param i kodit siper duhet te merret tcp e tunnelit&lt;/div&gt;&lt;div&gt;Realizimi ???&amp;nbsp;&lt;/div&gt;" style="text;html=1;align=center;verticalAlign=middle;resizable=0;points=[];autosize=1;strokeColor=#d6b656;fillColor=#fff2cc;" vertex="1" parent="WIyWlLk6GJQsqaUBKTNV-1">
          <mxGeometry x="480" y="720" width="300" height="90" as="geometry" />
        </mxCell>
        <mxCell id="3Fa9ECSKXKnsgaUjSohv-15" style="edgeStyle=orthogonalEdgeStyle;rounded=0;orthogonalLoop=1;jettySize=auto;html=1;exitX=0.5;exitY=1;exitDx=0;exitDy=0;" edge="1" parent="WIyWlLk6GJQsqaUBKTNV-1" source="3Fa9ECSKXKnsgaUjSohv-4" target="3Fa9ECSKXKnsgaUjSohv-4">
          <mxGeometry relative="1" as="geometry" />
        </mxCell>
        <mxCell id="3Fa9ECSKXKnsgaUjSohv-18" value="Legend" style="swimlane;fontStyle=0;childLayout=stackLayout;horizontal=1;startSize=30;horizontalStack=0;resizeParent=1;resizeParentMax=0;resizeLast=0;collapsible=1;marginBottom=0;whiteSpace=wrap;html=1;" vertex="1" parent="WIyWlLk6GJQsqaUBKTNV-1">
          <mxGeometry x="90" y="710" width="240" height="120" as="geometry" />
        </mxCell>
        <mxCell id="3Fa9ECSKXKnsgaUjSohv-19" value="Working" style="text;strokeColor=#82b366;fillColor=#d5e8d4;align=left;verticalAlign=middle;spacingLeft=4;spacingRight=4;overflow=hidden;points=[[0,0.5],[1,0.5]];portConstraint=eastwest;rotatable=0;whiteSpace=wrap;html=1;" vertex="1" parent="3Fa9ECSKXKnsgaUjSohv-18">
          <mxGeometry y="30" width="240" height="30" as="geometry" />
        </mxCell>
        <mxCell id="3Fa9ECSKXKnsgaUjSohv-20" value="Not working" style="text;strokeColor=#b85450;fillColor=#f8cecc;align=left;verticalAlign=middle;spacingLeft=4;spacingRight=4;overflow=hidden;points=[[0,0.5],[1,0.5]];portConstraint=eastwest;rotatable=0;whiteSpace=wrap;html=1;" vertex="1" parent="3Fa9ECSKXKnsgaUjSohv-18">
          <mxGeometry y="60" width="240" height="30" as="geometry" />
        </mxCell>
        <mxCell id="3Fa9ECSKXKnsgaUjSohv-21" value="Ide" style="text;strokeColor=#d6b656;fillColor=#fff2cc;align=left;verticalAlign=middle;spacingLeft=4;spacingRight=4;overflow=hidden;points=[[0,0.5],[1,0.5]];portConstraint=eastwest;rotatable=0;whiteSpace=wrap;html=1;" vertex="1" parent="3Fa9ECSKXKnsgaUjSohv-18">
          <mxGeometry y="90" width="240" height="30" as="geometry" />
        </mxCell>
        <mxCell id="3Fa9ECSKXKnsgaUjSohv-23" value="" style="shape=flexArrow;endArrow=classic;html=1;rounded=0;exitX=0;exitY=1;exitDx=0;exitDy=0;entryX=0.25;entryY=0;entryDx=0;entryDy=0;fillColor=#6d8764;strokeColor=#3A5431;" edge="1" parent="WIyWlLk6GJQsqaUBKTNV-1" source="3Fa9ECSKXKnsgaUjSohv-5" target="3Fa9ECSKXKnsgaUjSohv-3">
          <mxGeometry width="50" height="50" relative="1" as="geometry">
            <mxPoint x="322.5" y="400" as="sourcePoint" />
            <mxPoint x="297.5" y="521" as="targetPoint" />
          </mxGeometry>
        </mxCell>
      </root>
    </mxGraphModel>
  </diagram>
</mxfile>
